# xmcd
#
# Track frame offsets:
#	150
#	24277
#	45357
#	65264
#	90933
#	103737
#	140924
#	156539
#
# Disc length: 2467 seconds
#
# Revision: 1
# Processed by: cddbd v1.5.2PL0 Copyright (c) Steve Scherf et al.
# Submitted via: audiograbber 1.82.01
#
DISCID=6109a108
DTITLE=Burning Plague - Burning Plague
DYEAR=1970
DGENRE=Blues
TTITLE0=Night Travellin' Man
TTITLE1=First Time I Met You
TTITLE2=Life Is Nonsense
TTITLE3=Will I Find Somebody
TTITLE4=A 38
TTITLE5=She Went Riding
TTITLE6=Follow That Road
TTITLE7=Hairy Sea
EXTD=
EXTT0=
EXTT1=
EXTT2=
EXTT3=
EXTT4=
EXTT5=
EXTT6=
EXTT7=
PLAYORDER=
